<svg width="24" height="24" viewBox="0 0 24 24" fill="none" xmlns="http://www.w3.org/2000/svg">
<rect width="24" height="24" rx="4" fill="url(#paint0_linear_576_159)"/>
<path d="M17.0985 19.2494C17.0985 19.4442 16.9569 19.6035 16.7622 19.6035L14.2306 19.6035C14.1244 19.6035 14.0359 19.5681 13.9651 19.4796L13.9474 19.4442L9.66317 13.4251L9.66317 19.2494C9.66317 19.4442 9.52154 19.6035 9.32682 19.6035L7.25556 19.6035C7.06084 19.6035 6.90149 19.4442 6.90149 19.2494L6.90149 10.6103L8.53021 10.6103L6.93692 4.92758L6.90149 4.78595L6.90149 4.75055C6.90149 4.55581 7.06083 4.39648 7.25556 4.39648L9.41535 4.39648C9.55698 4.39648 9.69861 4.50271 9.73398 4.64433L11.1325 9.6366L13.9297 4.59122C14.0005 4.4673 14.1067 4.39648 14.2483 4.39648L16.6029 4.39648C16.7976 4.39648 16.9569 4.55581 16.9569 4.75055C16.9569 4.80366 16.9392 4.85677 16.9215 4.90988L16.8861 4.96298L12.5665 12.7347L17.01 19.0016L17.0631 19.0547C17.0808 19.1078 17.0985 19.1786 17.0985 19.2494Z" fill="black"/>
<defs>
<linearGradient id="paint0_linear_576_159" x1="12" y1="-3.20781e-07" x2="22.7636" y2="24" gradientUnits="userSpaceOnUse">
<stop stop-color="#F7931E"/>
<stop offset="1" stop-color="#5FD4A1"/>
</linearGradient>
</defs>
</svg>
