<svg width="134" height="24" viewBox="0 0 134 24" fill="none" xmlns="http://www.w3.org/2000/svg">
<path d="M16.32 3.78766C16.32 4.09387 16.0137 4.34466 15.6516 4.34466L10.3323 4.34466L10.3323 23.2546C10.3323 23.6168 10.0817 23.923 9.80315 23.923L6.51687 23.923C6.23837 23.923 5.98773 23.6168 5.98773 23.2546L5.98773 4.34466L0.556998 4.34466C0.250649 4.34466 1.7863e-07 4.09387 1.65269e-07 3.78766L2.3089e-08 0.529156C9.72148e-09 0.222798 0.250649 6.31432e-09 0.556998 1.40318e-08L15.6516 3.94294e-07C16.0137 4.03415e-07 16.32 0.222798 16.32 0.529157L16.32 3.78766ZM34.8674 23.0598L30.4394 15.206L29.8266 14.1478L29.6874 13.897C33.7256 13.0058 35.8143 10.026 35.8143 7.10166C35.8143 5.18006 34.9231 3.34206 33.3914 2.06089C31.8318 0.724097 29.6316 0.0278589 27.0974 0.0278589L18.9652 0.0278587C18.6588 0.0278587 18.4082 0.278499 18.4082 0.556997L18.4082 2.75707L18.6866 3.25847L18.6866 3.28627L22.3906 9.80324L18.4082 9.80324L18.4082 23.394C18.4082 23.7002 18.6588 23.951 18.9652 23.951L22.2236 23.951C22.502 23.951 22.7528 23.7002 22.7528 23.394L22.7528 14.1478L24.8414 14.1478L25.4264 15.206L30.1886 23.6168L30.2444 23.7002C30.328 23.8396 30.495 23.951 30.69 23.951L34.4218 23.951C34.7282 23.951 34.951 23.7002 34.951 23.366C34.951 23.2826 34.951 23.199 34.8954 23.1154L34.8674 23.0598ZM26.791 8.77265L24.3124 4.37246L27.0974 4.37246C30.1052 4.37246 31.442 5.79285 31.442 7.10166C31.442 8.21565 30.4394 9.44105 28.1834 9.74744C27.9328 9.77525 27.6544 9.80324 27.3758 9.80324L26.791 8.77265ZM54.2187 14.6768C54.2187 14.3706 53.9681 14.1478 53.6617 14.1478L51.8237 14.1478L48.4259 0.529157L48.3981 0.389898C48.3145 0.194959 48.1195 0.0557002 47.8967 0.0557002L44.2485 0.0557001C44.0257 0.0557001 43.8307 0.194959 43.7471 0.389898L43.7193 0.556998L38.0658 23.1432C38.0658 23.1712 38.0658 23.199 38.038 23.199L38.038 23.3104C38.038 23.6446 38.2886 23.8952 38.5672 23.8952L41.9369 23.8952C42.1597 23.8952 42.3825 23.7282 42.4381 23.5054C42.4381 23.4774 42.4661 23.4496 42.4661 23.4496L43.6915 18.4644L48.4537 18.4644L49.6791 23.4218L49.7071 23.5054C49.7905 23.7282 49.9855 23.8952 50.2083 23.8952L53.5781 23.8952C53.8845 23.8952 54.1073 23.6446 54.1073 23.3104L54.1073 23.2546L54.0795 23.1154L52.9097 18.4644L53.6617 18.4644C53.9681 18.4644 54.2187 18.2416 54.2187 17.9354L54.2187 14.6768ZM44.7775 14.1478L46.0865 8.99545L47.3677 14.1478L44.7775 14.1478Z" fill="#FAFAFA"/>
<path d="M73.2964 23.4412C73.2964 23.7485 73.073 24 72.7656 24L68.7703 24C68.6026 24 68.463 23.9442 68.3512 23.8044L68.3232 23.7485L61.5618 14.2491L61.5618 23.4412C61.5618 23.7485 61.3383 24 61.031 24L57.7621 24C57.4548 24 57.2033 23.7485 57.2033 23.4412L57.2033 9.80672L59.7738 9.80672L57.2592 0.838179L57.2033 0.614669L57.2033 0.558789C57.2033 0.251455 57.4548 6.33531e-09 57.7621 1.40772e-08L61.1707 9.99468e-08C61.3942 1.05578e-07 61.6178 0.16764 61.6736 0.39115L63.8808 8.27005L68.2953 0.307335C68.407 0.11176 68.5746 2.86465e-07 68.7982 2.92096e-07L72.5142 3.8571e-07C72.8215 3.93452e-07 73.073 0.251455 73.073 0.558789C73.073 0.642605 73.045 0.726429 73.0171 0.810244L72.9612 0.894059L66.144 13.1595L73.1568 23.0501L73.2406 23.1339C73.2685 23.2177 73.2964 23.3294 73.2964 23.4412Z" fill="#FAFAFA"/>
<path d="M91.8097 3.60401C91.8097 3.89537 91.5182 4.13397 91.1737 4.13397L86.1123 4.13397L86.1123 22.1272C86.1123 22.4717 85.8738 22.7632 85.6088 22.7632L82.4819 22.7632C82.2169 22.7632 81.9784 22.4717 81.9784 22.1272L81.9784 4.13397L76.8109 4.13397C76.5194 4.13397 76.2809 3.89537 76.2809 3.60401L76.2809 0.503487C76.2809 0.211944 76.5194 6.00816e-09 76.8109 1.33515e-08L91.1737 3.75177e-07C91.5182 3.83855e-07 91.8097 0.211945 91.8097 0.503488L91.8097 3.60401ZM102.559 22.7897C96.2787 22.7897 91.1642 17.6752 91.1642 11.3948C91.1642 5.11448 96.2787 5.03781e-07 102.559 6.61993e-07C108.839 8.20209e-07 113.954 5.11448 113.954 11.3948C113.954 17.6752 108.839 22.7897 102.559 22.7897ZM102.559 4.13397C98.5575 4.13397 95.2982 7.39332 95.2982 11.3948C95.2982 15.3962 98.5575 18.6292 102.559 18.6292C106.56 18.6292 109.793 15.3962 109.793 11.3948C109.793 7.39332 106.56 4.13397 102.559 4.13397ZM132.541 21.9417L128.328 14.4688L127.745 13.4618L127.612 13.2232C131.455 12.3753 133.442 9.5398 133.442 6.75729C133.442 4.92881 132.594 3.17994 131.137 1.96102C129.653 0.688966 127.559 0.0264691 125.148 0.0264691L117.41 0.0264689C117.119 0.0264689 116.88 0.264885 116.88 0.529959L116.88 2.62351L117.145 3.10034L117.145 3.12699L120.67 9.32786L116.88 9.32786L116.88 22.2595C116.88 22.5511 117.119 22.7897 117.41 22.7897L120.511 22.7897C120.776 22.7897 121.014 22.5511 121.014 22.2595L121.014 13.4618L123.002 13.4618L123.558 14.4688L128.089 22.4717L128.143 22.5511C128.222 22.6836 128.381 22.7897 128.566 22.7897L132.118 22.7897C132.409 22.7897 132.621 22.5511 132.621 22.2331C132.621 22.1537 132.621 22.0741 132.568 21.9947L132.541 21.9417ZM124.857 8.34735L122.498 4.16044L125.148 4.16044C128.01 4.16044 129.282 5.5119 129.282 6.75729C129.282 7.81739 128.328 8.98338 126.182 9.27492C125.943 9.30139 125.678 9.32786 125.413 9.32786L124.857 8.34735Z" fill="#FAFAFA"/>
</svg>
